<svg width="339" height="82" viewBox="0 0 339 82" fill="none" xmlns="http://www.w3.org/2000/svg">
<path d="M275.72 0H339V17.3539H276.474V64.1339H339V79.9788H275.72C263.064 79.9788 259.901 70.4216 259.901 65.643V14.3358C259.901 2.86717 270.447 0 275.72 0Z" fill="url(#paint0_linear_324_425)" fill-opacity="0.8"/>
<path d="M-0.00012207 67.9069V0.754883H16.5731V64.1343H79.8528V79.9792H12.0531C2.41053 79.9792 -0.00012207 71.931 -0.00012207 67.9069Z" fill="url(#paint1_linear_324_425)" fill-opacity="0.8"/>
<path d="M86.6328 36.9717V0.754883H103.206V31.6901H149.159V0.754883H165.732V67.9069C163.322 76.3575 156.19 79.4762 152.926 79.9792H86.6328V63.3798H149.159V48.2895H98.6861C91.1528 48.2895 86.6328 41.4988 86.6328 36.9717Z" fill="url(#paint2_linear_324_425)" fill-opacity="0.8"/>
<path d="M190.594 79.9789H173.268V12.8269C173.268 4.97994 174.774 3.0182 175.528 2.26361C180.952 -1.96169 187.33 2.51511 189.841 5.28167L235.794 50.5527V0.754572H252.367V71.6792C252.367 81.337 243.327 82.2425 240.314 79.9789L190.594 30.1807V79.9789Z" fill="url(#paint3_linear_324_425)" fill-opacity="0.8"/>
<defs>
<linearGradient id="paint0_linear_324_425" x1="296.175" y1="-366.945" x2="353.864" y2="72.8411" gradientUnits="userSpaceOnUse">
<stop offset="0.225215" stop-color="white"/>
<stop offset="0.987431" stop-color="white" stop-opacity="0"/>
</linearGradient>
<linearGradient id="paint1_linear_324_425" x1="36.6203" y1="-362.729" x2="92.727" y2="73.1831" gradientUnits="userSpaceOnUse">
<stop offset="0.225215" stop-color="white"/>
<stop offset="0.987431" stop-color="white" stop-opacity="0"/>
</linearGradient>
<linearGradient id="paint2_linear_324_425" x1="122.908" y1="-362.729" x2="179.531" y2="73.0472" gradientUnits="userSpaceOnUse">
<stop offset="0.225215" stop-color="white"/>
<stop offset="0.987431" stop-color="white" stop-opacity="0"/>
</linearGradient>
<linearGradient id="paint3_linear_324_425" x1="209.543" y1="-368.734" x2="267.95" y2="73.7351" gradientUnits="userSpaceOnUse">
<stop offset="0.225215" stop-color="white"/>
<stop offset="0.987431" stop-color="white" stop-opacity="0"/>
</linearGradient>
</defs>
</svg>
